<?xml version="1.0" encoding="utf-8"?>
<!-- Generator: Adobe Illustrator 21.1.0, SVG Export Plug-In . SVG Version: 6.00 Build 0)  -->
<svg version="1.1" id="Слой_1" xmlns="http://www.w3.org/2000/svg" xmlns:xlink="http://www.w3.org/1999/xlink" x="0px" y="0px"
	 viewBox="0 0 25 118" style="enable-background:new 0 0 25 118;" xml:space="preserve">
<path d="M24,116h-7.5c-4.4,0-4.5-4.5-4.5-5V78c0-0.3,0-8.4-3.2-12.6C6.6,62.5,4,60.2,2.6,59c1.4-1.2,4-3.5,6.2-6.4
	C12,48.4,12,40.3,12,40V7c0-0.5,0.1-5,4.5-5H24c0.6,0,1-0.4,1-1s-0.4-1-1-1h-7.5C12,0,10,3.6,10,7v33c0,0.1,0,7.7-2.8,11.4
	c-2.9,3.8-6.8,6.8-6.8,6.8l-0.1,0.1c0,0-0.1,0-0.1,0.1c0,0,0,0,0,0.1s-0.1,0.1-0.1,0.2c0,0.1,0,0.1-0.1,0.2C0,59,0,59,0,59.1
	c0,0.1,0,0.1,0,0.2c0,0.1,0,0.1,0.1,0.2c0,0.1,0,0.1,0.1,0.2c0,0,0,0,0,0.1c0,0,0.1,0,0.1,0.1L0.4,60c0,0,3.9,3,6.8,6.8
	C10,70.3,10,77.9,10,78v33c0,3.4,2,7,6.5,7H24c0.6,0,1-0.4,1-1S24.6,116,24,116z"/>
</svg>
