<?xml version="1.0" encoding="utf-8"?>
<!-- Generator: Adobe Illustrator 21.1.0, SVG Export Plug-In . SVG Version: 6.00 Build 0)  -->
<svg version="1.1" id="Слой_1" xmlns="http://www.w3.org/2000/svg" xmlns:xlink="http://www.w3.org/1999/xlink" x="0px" y="0px"
	 viewBox="0 0 686 661" style="enable-background:new 0 0 686 661;" xml:space="preserve">
<g>
	<g>
		<path style="fill:none;stroke:#E1E1E1;stroke-miterlimit:10;" d="M98.5,385.9c85.9,19.3,224.8-62.9,230.8-66.5l0,0l0,0l0.1-0.1
			v-0.1l0,0l0,0c-3.6-6-85.6-145.2-66.3-231.2c-4.6-4.7-9.5-8.8-14.8-12.2c0,0-72.1-50.6-129.9,27.3c0,0-26.3,31.3-6,96
			c-65.5,17.1-78,56-78,56c-35.2,90.5,45.9,124.8,45.9,124.8C86,382.4,92.1,384.4,98.5,385.9z M337.9,343.1L337.9,343.1L337.9,343.1
			l-0.2-0.1l0,0l0,0c-6,3.6-144.9,85.8-230.8,66.5c-4.6,4.6-8.8,9.5-12.2,14.8c0,0-50.5,72.3,27.3,130.2c0,0,31.2,26.3,95.8,6
			c17.1,65.6,55.9,78.1,55.9,78.1c90.3,35.3,124.6-46,124.6-46c2.6-5.7,4.6-11.8,6-18.2C423.5,488.4,341.5,349.2,337.9,343.1
			C337.9,343.2,337.9,343.1,337.9,343.1z M354.9,311.9L354.9,311.9L354.9,311.9l0.2,0.1l0,0l0,0c6-3.6,144.9-85.8,230.8-66.5
			c4.6-4.6,8.8-9.5,12.2-14.8c0,0,50.5-72.3-27.3-130.2c0,0-31.2-26.3-95.8-6c-17.1-65.6-55.9-78.1-55.9-78.1
			c-90.3-35.3-124.6,46-124.6,46c-2.6,5.7-4.6,11.8-6,18.2C269.3,166.6,351.3,305.8,354.9,311.9
			C354.9,311.8,354.9,311.9,354.9,311.9z M612.7,274.8c-5.7-2.6-11.8-4.6-18.2-6c-85.9-19.3-224.8,62.9-230.8,66.5l0,0l0,0v0.1v0.1
			l0,0l0,0c3.6,6,85.6,145.2,66.3,231.2c4.6,4.7,9.5,8.8,14.8,12.2c0,0,72.1,50.6,129.9-27.3c0,0,26.3-31.3,6-96
			c65.5-17.1,78-56,78-56C693.8,309.2,612.7,274.8,612.7,274.8z"/>
	</g>
</g>
</svg>
