<svg xmlns="http://www.w3.org/2000/svg"
 xmlns:xlink="http://www.w3.org/1999/xlink"
 width="28px" height="121px"  viewBox="0 0 28 121">
<path fill-rule="evenodd"  fill="#78b660"
 d="M25.491486,117.499756 C25.491486,117.499756 18.008102,117.499756 18.008102,117.499756 C13.618423,117.499756 13.491486,113.01141 13.491486,112.499725 C13.491486,112.499725 13.491486,79.499725 13.491486,79.499725 C13.491486,79.15933 13.455338,71.11813 10.291275,66.89981 C8.12648,64.01297 5.499298,61.66739 4.0925293,60.499756 C5.499298,59.33246 8.12648,56.98654 10.291275,54.099915 C13.455338,49.88159 13.491486,41.84012 13.491486,41.499725 C13.491486,41.499725 13.491486,8.499832 13.491486,8.499832 C13.491486,7.9880676 13.618423,3.4996948 18.008102,3.4996948 C18.008102,3.4996948 25.491486,3.4996948 25.491486,3.4996948 C26.04425,3.4996948 26.491486,3.051941 26.491486,2.49971 C26.491486,1.9477081 26.04425,1.4996948 25.491486,1.4996948 C25.491486,1.4996948 18.008102,1.4996948 18.008102,1.4996948 C13.530487,1.4996948 11.491486,5.1281433 11.491486,8.499832 C11.491486,8.499832 11.491486,41.49942 11.491486,41.49942 C11.491486,41.57614 11.453384,49.21649 8.691696,52.899628 C5.817169,56.732056 1.9299316,59.670807 1.8914185,59.700012 C1.8424988,59.73648 1.8147278,59.787994 1.7745819,59.831085 C1.7493439,59.858063 1.7143402,59.8696 1.6916962,59.89972 C1.6794891,59.915924 1.6776123,59.93564 1.666626,59.952087 C1.6276245,60.010864 1.6034393,60.073456 1.5780334,60.138214 C1.5552368,60.196106 1.5296783,60.25052 1.5181885,60.310425 C1.5059052,60.373535 1.508667,60.435516 1.5085907,60.499756 C1.508667,60.563995 1.5059052,60.62619 1.5181885,60.688995 C1.5296783,60.7489 1.5552368,60.80362 1.5780334,60.861237 C1.6034393,60.926117 1.6276245,60.988586 1.666626,61.047363 C1.6776123,61.063812 1.6794891,61.08383 1.6916962,61.100067 C1.7143402,61.130127 1.7493439,61.141663 1.7745819,61.16864 C1.8147278,61.21173 1.8424988,61.26303 1.8914185,61.29944 C1.9299316,61.32898 5.817169,64.267395 8.691696,68.09979 C11.453384,71.78296 11.491486,79.423584 11.491486,79.500305 C11.491486,79.500305 11.491486,112.499725 11.491486,112.499725 C11.491486,115.8714 13.530487,119.499756 18.008102,119.499756 C18.008102,119.499756 25.491486,119.499756 25.491486,119.499756 C26.04425,119.499756 26.491486,119.052 26.491486,118.49979 C26.491486,117.94751 26.04425,117.499756 25.491486,117.499756 Z"/>
</svg>