<svg xmlns="http://www.w3.org/2000/svg"
 xmlns:xlink="http://www.w3.org/1999/xlink"
 width="28px" height="121px"  viewBox="0 0 28 121">
<path fill-rule="evenodd"  fill="#78b660"
 d="M2.5084229,117.499756 C2.5084229,117.499756 9.991821,117.499756 9.991821,117.499756 C14.38147,117.499756 14.508423,113.01141 14.508423,112.499725 C14.508423,112.499725 14.508423,79.499725 14.508423,79.499725 C14.508423,79.15933 14.544617,71.11813 17.708618,66.89981 C19.873413,64.01297 22.50061,61.66739 23.90747,60.499756 C22.50061,59.33246 19.873413,56.98654 17.708618,54.099915 C14.544617,49.88159 14.508423,41.84012 14.508423,41.499725 C14.508423,41.499725 14.508423,8.499832 14.508423,8.499832 C14.508423,7.9880676 14.38147,3.4996948 9.991821,3.4996948 C9.991821,3.4996948 2.5084229,3.4996948 2.5084229,3.4996948 C1.9557495,3.4996948 1.5084229,3.051941 1.5084229,2.49971 C1.5084229,1.9477081 1.9557495,1.4996948 2.5084229,1.4996948 C2.5084229,1.4996948 9.991821,1.4996948 9.991821,1.4996948 C14.469421,1.4996948 16.508423,5.1281433 16.508423,8.499832 C16.508423,8.499832 16.508423,41.49942 16.508423,41.49942 C16.508423,41.57614 16.546509,49.21649 19.308167,52.899628 C22.18274,56.732056 26.070068,59.670807 26.10846,59.700012 C26.15741,59.73648 26.185242,59.787994 26.22528,59.831085 C26.25061,59.858063 26.285645,59.8696 26.308167,59.89972 C26.320435,59.915924 26.322266,59.93564 26.333252,59.952087 C26.372253,60.010864 26.396545,60.073456 26.421936,60.138214 C26.444763,60.196106 26.470215,60.25052 26.48169,60.310425 C26.494019,60.373535 26.49121,60.435516 26.491333,60.499756 C26.49121,60.563995 26.494019,60.62619 26.48169,60.688995 C26.470215,60.7489 26.444763,60.80362 26.421936,60.861237 C26.396545,60.926117 26.372253,60.988586 26.333252,61.047363 C26.322266,61.063812 26.320435,61.08383 26.308167,61.100067 C26.285645,61.130127 26.25061,61.141663 26.22528,61.16864 C26.185242,61.21173 26.15741,61.26303 26.10846,61.29944 C26.070068,61.32898 22.18274,64.267395 19.308167,68.09979 C16.546509,71.78296 16.508423,79.423584 16.508423,79.500305 C16.508423,79.500305 16.508423,112.499725 16.508423,112.499725 C16.508423,115.8714 14.469421,119.499756 9.991821,119.499756 C9.991821,119.499756 2.5084229,119.499756 2.5084229,119.499756 C1.9557495,119.499756 1.5084229,119.052 1.5084229,118.49979 C1.5084229,117.94751 1.9557495,117.499756 2.5084229,117.499756 Z"/>
</svg>